<?xml version="1.0" encoding="utf-8"?>
<!-- Generator: Adobe Illustrator 25.0.1, SVG Export Plug-In . SVG Version: 6.00 Build 0)  -->
<svg version="1.1" id="圖層_1" xmlns="http://www.w3.org/2000/svg" xmlns:xlink="http://www.w3.org/1999/xlink" x="0px" y="0px"
	 viewBox="0 0 100 100" style="enable-background:new 0 0 100 100;" xml:space="preserve">
<style type="text/css">
	.st0{fill:#040000;}
	.st1{fill:#EA5639;}
</style>
<g>
	<path class="st0" d="M82.7,83.3L82.7,83.3c-2.1,0-3.7-1.7-3.7-3.7V39.2c0-9.8-8-17.8-17.8-17.8H8.9c-4.3,0-7.9,3.5-7.9,7.9l0,0
		C1,33.5,4.6,37,8.9,37c0,0,0,0,0,0h38.8c3.4,0,6.2,2.8,6.2,6.2l0,0v40.5c0,8.9,7.2,16.1,16.1,16.1h19.3c5.1,0,9.1-4.1,9.1-9.1l0,0
		c0-5.1-4.1-9.1-9.2-9.1c-1.5,0-3,0.4-4.3,1.1l-0.5,0.2C83.9,83.2,83.3,83.3,82.7,83.3z"/>
	<g>
		<path class="st0" d="M24.8,49.2L43.7,58V11.2C43.7,5,38.7,0,32.6,0c-6.2,0-11.2,5-11.2,11.1c0,0,0,0,0,0v37.1
			C22.6,48.4,23.7,48.7,24.8,49.2z"/>
		<path class="st0" d="M37.7,77.6L21.4,70v10.7c0,2.8-2.3,5.1-5.1,5.1H8.1c-2.5,0-4.8,1.3-6.1,3.5C0,92.6,1.1,97,4.5,99
			c1.1,0.7,2.4,1,3.6,1h15.9c6.9,0,13.3-3.6,16.9-9.6c1.8-3,2.8-6.5,2.8-10.1v-2C41.8,78.7,39.7,78.5,37.7,77.6z"/>
	</g>
	<path class="st1" d="M37.8,73.8l-18.7-8.7c-4.4-2.1-6.3-7.3-4.3-11.7l0,0c2.1-4.4,7.3-6.3,11.7-4.3l18.7,8.7
		c4.4,2.1,6.3,7.3,4.3,11.7l0,0C47.5,74,42.2,75.9,37.8,73.8z"/>
</g>
</svg>
